<?xml version="1.0" encoding="UTF-8" standalone="no"?>
<svg width="42px" height="34px" viewBox="0 0 42 34" version="1.1" xmlns="http://www.w3.org/2000/svg" xmlns:xlink="http://www.w3.org/1999/xlink">
    <!-- Generator: Sketch 39.1 (31720) - http://www.bohemiancoding.com/sketch -->
    <title>codaisseur-logo-9a3b4e4a4929449d09c6504c4d67d2dfc4abbed8d8f4333c8cf441dc63d49a11</title>
    <desc>Created with Sketch.</desc>
    <defs></defs>
    <g id="Page-1" stroke="none" stroke-width="1" fill="none" fill-rule="evenodd">
        <g id="codaisseur-logo-9a3b4e4a4929449d09c6504c4d67d2dfc4abbed8d8f4333c8cf441dc63d49a11" fill="#414141">
            <g id="Group">
                <g id="Shape">
                    <path d="M4.06285185,6.21913776 C5.26590123,6.21913776 6.2291358,6.55601531 6.95246914,7.2295102 C7.67545679,7.90326531 8.03738272,8.7827551 8.03738272,9.86815306 C8.03738272,10.9799184 7.6724321,11.8823929 6.94296296,12.5754898 C6.21332099,13.2689337 5.25328395,13.615352 4.06293827,13.615352 C2.88512346,13.615352 1.92508642,13.265551 1.18282716,12.5656888 C0.440395062,11.8661735 0.0692222222,10.9668214 0.0692222222,9.86815306 C0.0692222222,8.78266837 0.436938272,7.90317857 1.17323457,7.2295102 C1.90909877,6.55601531 2.87233333,6.21913776 4.06285185,6.21913776 L4.06285185,6.21913776 Z M4.06285185,20.4066786 C5.26590123,20.4066786 6.23553086,20.7435561 6.9715679,21.417051 C7.70751852,22.0908061 8.07558025,22.9702959 8.07558025,24.0554337 C8.07558025,25.154102 7.7074321,26.0503316 6.9715679,26.7431684 C6.23544444,27.4365255 5.26590123,27.7829439 4.06285185,27.7829439 C2.88503704,27.7829439 1.925,27.4331429 1.18274074,26.7336276 C0.440308642,26.0341122 0.0691358025,25.1411786 0.0691358025,24.0554337 C0.0691358025,22.9831327 0.440308642,22.1070255 1.18274074,21.4265051 C1.925,20.7469388 2.88503704,20.4066786 4.06285185,20.4066786 L4.06285185,20.4066786 Z"></path>
                    <path d="M20.5835432,16.9810918 C21.5694198,17.6270918 22.2504938,18.3784745 22.6269383,19.2358469 C23.003037,20.0928724 23.1913457,21.5693571 23.1913457,23.6657347 L23.1913457,26.5468878 C23.1913457,27.8697653 23.2990247,28.7009439 23.5150741,29.0423316 C23.7309506,29.3826786 24.1398025,29.6128724 24.7421481,29.7335204 C24.8862963,29.7721173 25.1023457,29.8109745 25.3902963,29.849398 C26.8690247,30.0677959 27.6088642,30.7800612 27.6088642,31.9869745 C27.6088642,32.5777245 27.3940247,33.0525102 26.9639136,33.4123724 C26.5338025,33.7717143 25.960321,33.951602 25.2438148,33.951602 C24.3313086,33.951602 23.4484444,33.8018112 22.5950494,33.5030102 C21.7413086,33.2038622 21.0343951,32.7940408 20.4741358,32.2738061 C19.8614198,31.7144541 19.428284,30.992648 19.1742963,30.108648 C18.9201358,29.2240408 18.7930123,27.7090459 18.7930123,25.5632296 L18.7930123,23.2397806 C18.7930123,20.8858878 17.7112099,19.5322194 15.5482099,19.1790357 C15.4568642,19.1530153 15.3917901,19.1398316 15.3527284,19.1398316 C14.7272222,19.034449 14.264358,18.8099796 13.9647407,18.4666837 C13.6648642,18.123301 13.5152716,17.6283061 13.5152716,16.9812653 C13.5152716,16.4134133 13.6422222,15.9647347 13.8963827,15.6348827 C14.1504568,15.3050306 14.5576667,15.0672041 15.1180988,14.9218367 C15.3655185,14.8436888 15.7240741,14.7590357 16.1932469,14.6677908 C17.9262222,14.3421888 18.7929259,13.0520102 18.7929259,10.797602 L18.7929259,8.47163776 C18.7929259,6.47422449 18.8906667,5.07432653 19.0861481,4.27107653 C19.2818025,3.4682602 19.6139136,2.76657653 20.0831728,2.16585204 C20.6303827,1.4999898 21.3633951,0.981316327 22.2821235,0.609137755 C23.2008519,0.237045918 24.2141235,0.051 25.321679,0.051 C26.0123457,0.051 26.5661235,0.23097449 26.9832716,0.590489796 C27.4001605,0.950352041 27.6087778,1.42427041 27.6087778,2.01285204 C27.6087778,3.24231633 26.8168272,3.98138265 25.2332716,4.22979082 C25.0889506,4.24297449 24.9842963,4.25607143 24.918963,4.2689949 C24.2645926,4.37325 23.8127037,4.61107653 23.5640741,4.98256122 C23.3154444,5.35421939 23.1912593,6.19788776 23.1912593,7.51382653 L23.1912593,10.3869133 C23.1912593,12.3497194 22.9962963,13.7889949 22.6072346,14.7048265 C22.2182593,15.6206582 21.5434938,16.3793265 20.5835432,16.9810918 L20.5835432,16.9810918 Z"></path>
                    <path d="M34.0389259,5.33808673 C34.0389259,5.13434694 34.1096173,4.95862245 34.2510864,4.8107398 C34.3927284,4.66320408 34.5596049,4.58904592 34.7520617,4.58904592 C35.2069753,4.58904592 35.7607531,4.84127041 36.4131358,5.34580612 C37.0658642,5.85016837 37.7661235,6.57128061 38.5146914,7.50879592 C39.6575926,8.94572959 40.5172099,10.4589031 41.0939753,12.0486633 C41.6702222,13.6383367 41.9586914,15.2943622 41.9586914,17.0163061 C41.9586914,18.9020051 41.609642,20.715801 40.9118889,22.4582143 C40.213963,24.2006276 39.1770988,25.841301 37.801642,27.3799745 C37.2147654,28.0319592 36.6533827,28.5346735 36.1176667,28.8860357 C35.5812593,29.2375714 35.1160617,29.4130357 34.7218148,29.4130357 C34.5395556,29.4130357 34.3803704,29.344602 34.2438272,29.2072143 C34.107284,29.0693061 34.0390988,28.8988724 34.0390988,28.6946122 C34.0390988,28.4708367 34.2858272,27.9512959 34.7798889,27.1355561 C35.1422469,26.5341378 35.424321,26.0453878 35.6258519,25.6680918 C36.4417407,24.1395663 37.0315556,22.6871939 37.3939136,21.3115816 C37.7566173,19.9361429 37.9379259,18.5045 37.9379259,17.0163061 C37.9379259,15.6815459 37.7920494,14.3872908 37.4999506,13.1338878 C37.2074198,11.880398 36.7595062,10.632199 36.1549136,9.38885714 C35.8221975,8.71622959 35.3867284,7.92893878 34.847642,7.0272449 C34.3082963,6.12537755 34.0389259,5.56246939 34.0389259,5.33808673 L34.0389259,5.33808673 Z"></path>
                </g>
            </g>
        </g>
    </g>
</svg>